<svg xmlns="http://www.w3.org/2000/svg" width="1180" height="720" viewBox="0 0 1180 720">
<rect width="100%" height="100%" fill="#ffffff"/>
<text x="590.00" y="38" text-anchor="middle" font-size="24" font-weight="700" fill="#111827">Время выполнения матричного умножения CPU и AMX</text>
<text x="22" y="326.00" text-anchor="middle" font-size="14" fill="#374151" transform="rotate(-90 22 326.00)">Время, мс (логарифмическая шкала)</text>
<line x1="92" y1="570.00" x2="1146" y2="570.00" stroke="#e5e7eb" stroke-width="1"/>
<text x="80" y="574.00" text-anchor="end" font-size="12" fill="#4b5563">0.01</text>
<line x1="92" y1="488.67" x2="1146" y2="488.67" stroke="#e5e7eb" stroke-width="1"/>
<text x="80" y="492.67" text-anchor="end" font-size="12" fill="#4b5563">0.1</text>
<line x1="92" y1="407.33" x2="1146" y2="407.33" stroke="#e5e7eb" stroke-width="1"/>
<text x="80" y="411.33" text-anchor="end" font-size="12" fill="#4b5563">1</text>
<line x1="92" y1="326.00" x2="1146" y2="326.00" stroke="#e5e7eb" stroke-width="1"/>
<text x="80" y="330.00" text-anchor="end" font-size="12" fill="#4b5563">10</text>
<line x1="92" y1="244.67" x2="1146" y2="244.67" stroke="#e5e7eb" stroke-width="1"/>
<text x="80" y="248.67" text-anchor="end" font-size="12" fill="#4b5563">100</text>
<line x1="92" y1="163.33" x2="1146" y2="163.33" stroke="#e5e7eb" stroke-width="1"/>
<text x="80" y="167.33" text-anchor="end" font-size="12" fill="#4b5563">1000</text>
<line x1="92" y1="82.00" x2="1146" y2="82.00" stroke="#e5e7eb" stroke-width="1"/>
<text x="80" y="86.00" text-anchor="end" font-size="12" fill="#4b5563">10000</text>
<line x1="92" y1="570" x2="1146" y2="570" stroke="#111827" stroke-width="1.2"/>
<line x1="92" y1="82" x2="92" y2="570" stroke="#111827" stroke-width="1.2"/>
<rect x="92" y="54" width="16" height="16" rx="3" fill="#2563eb"/>
<text x="114" y="67" font-size="13" fill="#374151">CPU/NEON</text>
<rect x="224" y="54" width="16" height="16" rx="3" fill="#dc2626"/>
<text x="246" y="67" font-size="13" fill="#374151">AMX</text>
<rect x="129.83" y="191.17" width="46.00" height="378.83" rx="4" fill="#2563eb"/>
<text x="152.83" y="185.17" text-anchor="middle" font-size="10" fill="#374151">4.5e+02</text>
<rect x="183.83" y="546.20" width="46.00" height="23.80" rx="4" fill="#dc2626"/>
<text x="206.83" y="540.20" text-anchor="middle" font-size="10" fill="#374151">0.02</text>
<text x="179.83" y="594.00" text-anchor="middle" font-size="11" fill="#1f2937"><tspan x="179.83" dy="0">float32</tspan><tspan x="179.83" dy="13">128x128 * 128x128</tspan></text>
<rect x="305.50" y="190.82" width="46.00" height="379.18" rx="4" fill="#2563eb"/>
<text x="328.50" y="184.82" text-anchor="middle" font-size="10" fill="#374151">4.6e+02</text>
<rect x="359.50" y="561.16" width="46.00" height="8.84" rx="4" fill="#dc2626"/>
<text x="382.50" y="555.16" text-anchor="middle" font-size="10" fill="#374151">0.013</text>
<text x="355.50" y="594.00" text-anchor="middle" font-size="11" fill="#1f2937"><tspan x="355.50" dy="0">float32</tspan><tspan x="355.50" dy="13">128x256 * 256x64</tspan></text>
<rect x="481.17" y="117.57" width="46.00" height="452.43" rx="4" fill="#2563eb"/>
<text x="504.17" y="111.57" text-anchor="middle" font-size="10" fill="#374151">3.7e+03</text>
<rect x="535.17" y="498.72" width="46.00" height="71.28" rx="4" fill="#dc2626"/>
<text x="558.17" y="492.72" text-anchor="middle" font-size="10" fill="#374151">0.075</text>
<text x="531.17" y="594.00" text-anchor="middle" font-size="11" fill="#1f2937"><tspan x="531.17" dy="0">float32</tspan><tspan x="531.17" dy="13">256x256 * 256x256</tspan></text>
<rect x="656.83" y="191.07" width="46.00" height="378.93" rx="4" fill="#2563eb"/>
<text x="679.83" y="185.07" text-anchor="middle" font-size="10" fill="#374151">4.6e+02</text>
<rect x="710.83" y="530.74" width="46.00" height="39.26" rx="4" fill="#dc2626"/>
<text x="733.83" y="524.74" text-anchor="middle" font-size="10" fill="#374151">0.03</text>
<text x="706.83" y="594.00" text-anchor="middle" font-size="11" fill="#1f2937"><tspan x="706.83" dy="0">float64</tspan><tspan x="706.83" dy="13">128x128 * 128x128</tspan></text>
<rect x="832.50" y="191.19" width="46.00" height="378.81" rx="4" fill="#2563eb"/>
<text x="855.50" y="185.19" text-anchor="middle" font-size="10" fill="#374151">4.5e+02</text>
<rect x="886.50" y="541.98" width="46.00" height="28.02" rx="4" fill="#dc2626"/>
<text x="909.50" y="535.98" text-anchor="middle" font-size="10" fill="#374151">0.022</text>
<text x="882.50" y="594.00" text-anchor="middle" font-size="11" fill="#1f2937"><tspan x="882.50" dy="0">float64</tspan><tspan x="882.50" dy="13">128x256 * 256x64</tspan></text>
<rect x="1008.17" y="117.60" width="46.00" height="452.40" rx="4" fill="#2563eb"/>
<text x="1031.17" y="111.60" text-anchor="middle" font-size="10" fill="#374151">3.6e+03</text>
<rect x="1062.17" y="474.78" width="46.00" height="95.22" rx="4" fill="#dc2626"/>
<text x="1085.17" y="468.78" text-anchor="middle" font-size="10" fill="#374151">0.15</text>
<text x="1058.17" y="594.00" text-anchor="middle" font-size="11" fill="#1f2937"><tspan x="1058.17" dy="0">float64</tspan><tspan x="1058.17" dy="13">256x256 * 256x256</tspan></text>
</svg>
