<svg xmlns="http://www.w3.org/2000/svg" width="1180" height="720" viewBox="0 0 1180 720">
<rect width="100%" height="100%" fill="#ffffff"/>
<text x="590.00" y="38" text-anchor="middle" font-size="24" font-weight="700" fill="#111827">AMX speedup relative to CPU</text>
<text x="22" y="326.00" text-anchor="middle" font-size="14" fill="#374151" transform="rotate(-90 22 326.00)">Speedup, x (log scale)</text>
<line x1="92" y1="570.00" x2="1146" y2="570.00" stroke="#e5e7eb" stroke-width="1"/>
<text x="80" y="574.00" text-anchor="end" font-size="12" fill="#4b5563">10000</text>
<line x1="92" y1="82.00" x2="1146" y2="82.00" stroke="#e5e7eb" stroke-width="1"/>
<text x="80" y="86.00" text-anchor="end" font-size="12" fill="#4b5563">1e5</text>
<line x1="92" y1="570" x2="1146" y2="570" stroke="#111827" stroke-width="1.2"/>
<line x1="92" y1="82" x2="92" y2="570" stroke="#111827" stroke-width="1.2"/>
<rect x="92" y="54" width="16" height="16" rx="3" fill="#059669"/>
<text x="114" y="67" font-size="13" fill="#374151">AMX / CPU</text>
<rect x="156.83" y="390.23" width="46.00" height="179.77" rx="4" fill="#059669"/>
<text x="179.83" y="384.23" text-anchor="middle" font-size="10" fill="#374151">2.3e+04</text>
<text x="179.83" y="594.00" text-anchor="middle" font-size="11" fill="#1f2937"><tspan x="179.83" dy="0">float32</tspan><tspan x="179.83" dy="13">128x128 * 128x128</tspan></text>
<rect x="332.50" y="310.17" width="46.00" height="259.83" rx="4" fill="#059669"/>
<text x="355.50" y="304.17" text-anchor="middle" font-size="10" fill="#374151">3.4e+04</text>
<text x="355.50" y="594.00" text-anchor="middle" font-size="11" fill="#1f2937"><tspan x="355.50" dy="0">float32</tspan><tspan x="355.50" dy="13">128x256 * 256x64</tspan></text>
<rect x="508.17" y="249.93" width="46.00" height="320.07" rx="4" fill="#059669"/>
<text x="531.17" y="243.93" text-anchor="middle" font-size="10" fill="#374151">4.5e+04</text>
<text x="531.17" y="594.00" text-anchor="middle" font-size="11" fill="#1f2937"><tspan x="531.17" dy="0">float32</tspan><tspan x="531.17" dy="13">256x256 * 256x256</tspan></text>
<rect x="683.83" y="491.15" width="46.00" height="78.85" rx="4" fill="#059669"/>
<text x="706.83" y="485.15" text-anchor="middle" font-size="10" fill="#374151">1.5e+04</text>
<text x="706.83" y="594.00" text-anchor="middle" font-size="11" fill="#1f2937"><tspan x="706.83" dy="0">float64</tspan><tspan x="706.83" dy="13">128x128 * 128x128</tspan></text>
<rect x="859.50" y="421.61" width="46.00" height="148.39" rx="4" fill="#059669"/>
<text x="882.50" y="415.61" text-anchor="middle" font-size="10" fill="#374151">2e+04</text>
<text x="882.50" y="594.00" text-anchor="middle" font-size="11" fill="#1f2937"><tspan x="882.50" dy="0">float64</tspan><tspan x="882.50" dy="13">128x256 * 256x64</tspan></text>
<rect x="1035.17" y="373.18" width="46.00" height="196.82" rx="4" fill="#059669"/>
<text x="1058.17" y="367.18" text-anchor="middle" font-size="10" fill="#374151">2.5e+04</text>
<text x="1058.17" y="594.00" text-anchor="middle" font-size="11" fill="#1f2937"><tspan x="1058.17" dy="0">float64</tspan><tspan x="1058.17" dy="13">256x256 * 256x256</tspan></text>
</svg>
